<svg width="27" height="27" viewBox="0 0 27 27" fill="none" xmlns="http://www.w3.org/2000/svg">
<path d="M19.0521 3.92245C19.0521 3.77384 18.9931 3.63131 18.888 3.52622C18.7829 3.42113 18.6404 3.3621 18.4918 3.3621H15.69C14.2791 3.29182 12.8978 3.7828 11.8478 4.72778C10.7979 5.67275 10.1646 6.99489 10.0864 8.40531V11.4312H7.2846C7.13598 11.4312 6.99346 11.4903 6.88837 11.5954C6.78328 11.7005 6.72424 11.843 6.72424 11.9916V14.9055C6.72424 15.0541 6.78328 15.1966 6.88837 15.3017C6.99346 15.4068 7.13598 15.4658 7.2846 15.4658H10.0864V22.9746C10.0864 23.1232 10.1454 23.2658 10.2505 23.3708C10.3556 23.4759 10.4981 23.535 10.6467 23.535H14.0089C14.1575 23.535 14.3 23.4759 14.4051 23.3708C14.5102 23.2658 14.5693 23.1232 14.5693 22.9746V15.4658H17.5055C17.6301 15.4676 17.7518 15.4278 17.8512 15.3527C17.9507 15.2776 18.0223 15.1715 18.0547 15.0512L18.8616 12.1373C18.8839 12.0545 18.8869 11.9677 18.8703 11.8836C18.8538 11.7994 18.8182 11.7202 18.7662 11.652C18.7143 11.5838 18.6473 11.5284 18.5706 11.4901C18.4939 11.4519 18.4094 11.4317 18.3236 11.4312H14.5693V8.40531C14.5971 8.12791 14.7274 7.87086 14.9346 7.68435C15.1419 7.49784 15.4112 7.39527 15.69 7.39667H18.4918C18.6404 7.39667 18.7829 7.33763 18.888 7.23255C18.9931 7.12746 19.0521 6.98493 19.0521 6.83631V3.92245Z" fill="white"/>
</svg>
